<?xml version="1.0" encoding="UTF-8" standalone="no"?>
<svg
   version="1.1"
   width="1000"
   height="1000"
   viewBox="0 0 1000 1000"
   id="svg157"
   sodipodi:docname="logo-color.svg"
   xmlns:inkscape="http://www.inkscape.org/namespaces/inkscape"
   xmlns:sodipodi="http://sodipodi.sourceforge.net/DTD/sodipodi-0.dtd"
   xmlns="http://www.w3.org/2000/svg"
   xmlns:svg="http://www.w3.org/2000/svg">
  <defs
     id="defs161" />
  <sodipodi:namedview
     id="namedview159"
     pagecolor="#ffffff"
     bordercolor="#111111"
     borderopacity="1"
     inkscape:showpageshadow="0"
     inkscape:pageopacity="0"
     inkscape:pagecheckerboard="1"
     inkscape:deskcolor="#d1d1d1"
     showgrid="false" />
  <g
     transform="matrix(0.7,0,0,0.7,130.07714,233.38004)"
     id="g155">
    <svg
       viewBox="0 0 396 247"
       data-background-color="#111111"
       preserveAspectRatio="xMidYMid"
       height="623"
       width="1000"
       version="1.1"
       id="svg153">
      <g
         id="tight-bounds"
         transform="translate(0.23999963,-0.1)">
        <svg
           viewBox="0 0 395.52 247.2"
           height="247.2"
           width="395.51999"
           version="1.1"
           id="svg148">
          <g
             id="g106">
            <svg
               version="1.1"
               id="svg104"
               width="100%"
               height="100%" />
          </g>
          <g
             id="g140">
            <svg
               viewBox="0 0 395.52 247.2"
               height="247.2"
               width="395.51999"
               version="1.1"
               id="svg138">
              <g
                 transform="translate(0,93.997685)"
                 id="g129">
                <svg
                   viewBox="0 0 395.52 59.20463"
                   height="59.204632"
                   width="395.51999"
                   version="1.1"
                   id="svg127">
                  <g
                     id="g125">
                    <svg
                       viewBox="0 0 395.52 59.20463"
                       height="59.204632"
                       width="395.51999"
                       version="1.1"
                       id="svg123">
                      <g
                         id="g121">
                        <svg
                           viewBox="0 0 395.52 59.20463"
                           height="59.204632"
                           width="395.51999"
                           version="1.1"
                           id="svg119">
                          <g
                             id="textblocktransform">
                            <svg
                               viewBox="0 0 395.52 59.20463"
                               height="59.204632"
                               width="395.51999"
                               id="textblock"
                               version="1.1">
                              <g
                                 id="g115">
                                <svg
                                   viewBox="0 0 395.52 59.20463"
                                   height="59.204632"
                                   width="395.51999"
                                   version="1.1"
                                   id="svg113">
                                <g
                                   id="g111">
                                <svg
                                   width="395.51999"
                                   viewBox="2.5 -35.849998 253.862 38.001945"
                                   height="59.204632"
                                   data-palette-color="#ffffff"
                                   version="1.1"
                                   id="svg109">
                                <path
                                   d="m 5.5,-25.15 q 1.95,-3.25 6.05,-5.7 v 0 q 3.25,-1.95 7.55,-1.95 v 0 q 3.05,0 5.9,1.02 2.85,1.03 4.7,2.88 v 0 q 0.65,0.65 1.4,1.25 v 0 q 1.15,1 1.35,1.25 v 0 q 2.5,2.65 2.5,5.85 v 0 q 0,2.5 -1.6,5.1 v 0 Q 31.25,-12 29,-9.4 q -2.25,2.6 -5.05,4.45 v 0 q -4.75,3.15 -9.1,3.15 v 0 q -1.3,0 -2.6,-0.3 v 0 Q 7.9,-3.05 5.2,-6.18 2.5,-9.3 2.5,-13.3 v 0 q 0,-3.05 1.7,-6.1 v 0 q 0.1,-0.25 0.43,-0.5 0.32,-0.25 0.52,-0.4 v 0 l 1.15,0.55 1.1,0.55 q 1.55,0.85 2.03,1.4 0.47,0.55 0.47,1.55 v 0 q 0,0.7 -0.15,1.9 v 0 q -0.05,0.45 -0.05,1.3 v 0 q 0,1.85 0.45,4.45 v 0 q 0.1,0.75 0.63,1.15 0.52,0.4 1.32,0.4 v 0 q 0.4,0 0.65,-0.05 v 0 q 2.35,-0.45 4.03,-1.05 1.67,-0.6 3.02,-1.8 v 0 q 2.5,-2.15 4.35,-4.15 1.85,-2 3.25,-4.3 v 0 q 0.95,-1.6 0.95,-3.1 v 0 q 0,-1.25 -0.55,-2.45 -0.55,-1.2 -1.6,-2.7 v 0 q -1.75,-2.4 -4.55,-2.4 v 0 q -1,0 -2.05,0.3 v 0 q -0.35,0.1 -3.2,1.05 v 0 q -0.3,0.1 -0.62,0.2 -0.33,0.1 -0.68,0.2 v 0 l -5.7,1.65 Q 8.3,-25.3 6,-24.7 v 0 z m 38.45,0.5 q -0.2,-1.8 0.52,-3.28 0.73,-1.47 2.08,-2.87 v 0 l 3.05,-0.25 q 0.7,-0.1 0.85,-0.1 v 0 q 0.75,0 1.9,1.85 v 0 q 0.1,0.3 0.2,0.72 0.1,0.43 0.3,0.68 v 0 l 5.8,8.05 q 1.3,1.65 2.55,3.45 v 0 l 0.85,-2.75 q 1.6,-5.25 2.92,-8.53 1.33,-3.27 3.48,-6.22 v 0 l 2.4,0.35 q 0.95,0.75 0.65,2 v 0 q -0.45,1.8 -0.95,2.7 v 0 q -1.2,3.05 -2,6.17 -0.8,3.13 -1.8,7.88 v 0 q -0.15,0.65 -0.4,1.95 v 0 q -0.4,2 -1.55,2.97 -1.15,0.98 -3.15,1.08 v 0 q -2,0.1 -3.45,-1.65 v 0 q -1.5,-1.8 -3.75,-4.85 v 0 l -1,-1.35 q -1.35,-1.8 -4.1,-5.3 v 0 l -0.45,2.15 q -0.75,3.6 -0.9,5.65 v 0 l -0.3,6.05 q -0.05,1 -0.1,2.52 -0.05,1.53 -0.2,3.58 v 0 q -0.05,1.5 -1.03,2.6 -0.97,1.1 -2.42,1.5 v 0 Q 43.2,2.3 42.12,1.73 41.05,1.15 40.85,0.4 v 0 Q 40.5,-0.9 40.5,-1.9 v 0 q 0,-0.9 0.25,-1.6 v 0 q 0.45,-1.2 0.6,-3.8 v 0 q 0.1,-1.6 0.25,-2.4 v 0 q 0.65,-4.6 2,-12.7 v 0 q 0.05,-0.4 0.22,-1.08 0.18,-0.67 0.13,-1.17 z M 97.5,-33.5 q 2.75,0.35 4.6,2.85 v 0 q -0.65,0.95 -1.38,1.37 -0.72,0.43 -1.77,0.48 v 0 q -4.35,0.05 -7.43,0.35 -3.07,0.3 -6.5,2 -3.42,1.7 -3.87,5.45 v 0 q -1.35,2.75 -1.35,6.45 v 0 q 0,1.9 0.45,4.85 v 0 q 0.6,3.8 3.75,3.8 v 0 q 0.8,0 1.25,-0.1 v 0 q 2.65,-0.45 5.3,-2 v 0 q 1.5,-0.95 3,-2.18 1.5,-1.22 1.8,-1.42 v 0 l 1.3,-1.05 q 0.55,-0.5 0.82,-0.93 0.28,-0.42 0.28,-1.07 v 0 q 0,-0.25 -0.1,-0.75 v 0 q -1.7,0.15 -5,0.35 v 0 l -1.45,0.1 q -0.95,0.1 -2.85,0.2 v 0 q -2.05,0 -3.23,-0.98 -1.17,-0.97 -1.82,-3.22 v 0 q 0.15,-0.1 0.35,-0.3 0.2,-0.2 0.35,-0.2 v 0 l 1.75,-0.2 q 5.75,-0.7 8.75,-0.85 v 0 q 2.45,-0.15 5.7,0.4 v 0 q 4.5,0.75 4.5,4.15 v 0 q 0,1.25 -0.5,2.6 v 0 q -0.25,0.75 -0.8,1.75 v 0 q -1.15,2.45 -3.15,4.25 -2,1.8 -4.85,3.45 v 0 q -2.25,1.35 -3.95,2.1 -1.7,0.75 -3.6,0.9 v 0 q -0.45,0.05 -1.4,0.05 v 0 q -4.35,0 -7.9,-2.95 v 0 Q 76.8,-5.3 75.87,-7.03 74.95,-8.75 74.8,-10.95 v 0 q -0.1,-1.5 -0.1,-2.1 v 0 q 0,-2.85 0.7,-5.33 0.7,-2.47 2.65,-7.72 v 0 q 1.95,-4.25 6.3,-5.98 4.35,-1.72 9.2,-1.72 v 0 q 2.05,0 3.95,0.3 z m 13.69,18.15 q -0.05,-0.35 -0.05,-1.15 v 0 q 0,-1.95 0.4,-3.8 0.4,-1.85 1.15,-4.05 v 0 q 0.75,-2.05 2.85,-4.1 2.1,-2.05 4.7,-3.38 2.6,-1.32 4.7,-1.32 v 0 q 2.15,0 4.2,1.57 2.05,1.58 2.6,3.58 v 0 q 0.1,0.6 0.1,0.8 v 0 q 0,0.75 -0.42,1.12 -0.43,0.38 -1.13,0.38 v 0 q -0.55,0 -0.85,-0.05 v 0 q -0.15,0 -0.45,-0.2 v 0 q -1.45,-0.8 -2.8,-0.8 v 0 q -2.55,0 -5.05,2.65 v 0 q -4.25,4.45 -4.25,10.6 v 0 q 0,2.2 0.45,4.25 v 0 q 0.5,2.3 1.78,3.37 1.27,1.08 3.42,1.08 v 0 q 0.75,0 1.65,-0.15 v 0 q 3.15,-0.4 5.8,-1.93 2.65,-1.52 5.85,-4.07 v 0 q 0.75,-0.6 2.65,-2.5 v 0 l 1,-1.05 q 0.65,-0.65 1.13,-0.93 0.47,-0.27 0.87,-0.27 v 0 q 0.65,0 1.6,0.65 v 0 q 1.05,0.75 1.05,1.9 v 0 q 0,0.8 -0.55,1.5 v 0 q -0.2,0.35 -1.1,1.62 -0.9,1.28 -1.75,2.28 -0.85,1 -1.7,1.7 v 0 q -4.6,4.05 -9.6,5.45 v 0 q -2.2,0.6 -4.4,0.6 v 0 q -4.05,0 -7.17,-2.05 -3.13,-2.05 -4.88,-5.38 -1.75,-3.32 -1.8,-6.92 v 0 z m 56.5,-2.95 q -1.2,0.1 -1.75,0.1 v 0 q -3.7,0.25 -5.7,0.55 v 0 q -1.1,0.2 -2.7,2.7 v 0 q -1.35,2.1 -1.85,6.65 v 0 l -0.55,1.8 q -0.25,0.9 -0.75,1.55 v 0 q -0.3,0.35 -0.77,0.57 -0.48,0.23 -0.98,0.23 v 0 q 0.25,0 -0.2,-0.55 v 0 q -1,-1.35 -1.47,-2.18 -0.48,-0.82 -0.48,-1.87 v 0 q 0,-0.45 0.15,-1.05 v 0 q 0.25,-0.75 0.3,-1.5 v 0 q 0.1,-0.3 0.2,-0.88 0.1,-0.57 0.25,-0.97 v 0 q 0.15,-0.45 0.15,-0.85 v 0 q 0,-1.1 -1.15,-2.1 v 0 q -1.7,-1.45 -1.7,-2.65 v 0 q 0,-1.4 2.2,-2.6 v 0 q 0.2,-0.1 0.58,-0.35 0.37,-0.25 0.67,-0.3 v 0 q 1.05,-0.25 1.53,-0.95 0.47,-0.7 0.82,-1.95 v 0 q 0.95,-3.3 2.1,-7.1 v 0 l 0.55,-1.8 q 0.1,-0.35 0.55,-1.3 v 0 q 2.2,-0.05 3.13,1.2 0.92,1.25 0.92,3.25 v 0 q 0,0.3 -0.1,0.9 v 0 l -0.45,2 -0.3,1.1 -0.5,2.65 2.65,0.2 6.35,0.55 1.7,-5.25 0.4,-1.7 q 1.45,-1.9 2.55,-0.9 v 0 q 1.05,0.95 1.83,2.12 0.77,1.18 0.77,2.68 v 0 q 0,1.45 -0.85,3.7 v 0 q 0.4,0.25 0.95,0.42 0.55,0.18 0.75,0.23 v 0 q 1.55,0.45 2.4,1.05 0.85,0.6 1.05,2.15 v 0 q -0.6,0.95 -1.6,1.25 -1,0.3 -2.35,0.15 v 0 q -0.5,-0.05 -1.3,-0.05 v 0 q -1.1,0 -1.45,0.45 -0.35,0.45 -0.85,2.1 v 0 l -0.6,1.95 q -1.2,3.9 -1.72,6.25 -0.53,2.35 -0.73,4.9 v 0 q 0,0.2 -0.02,0.82 -0.03,0.63 -0.33,1.01 -0.3,0.37 -0.95,0.37 v 0 q -1.65,0.15 -2,-1.75 v 0 q -1.2,-2.65 -1.2,-5.1 v 0 q 0,-1.05 0.1,-1.6 v 0 q 0.55,-3.2 1.45,-8.15 v 0 z m 30.15,-0.3 q 0,0.2 0.05,0.42 0.05,0.23 0.1,0.43 v 0 q 0.4,0.05 1.2,0.05 v 0 q 3.5,0 7.2,-1.5 v 0 q 1.05,-0.4 1.75,-0.4 v 0 q 1.4,0 2.3,1.3 v 0 q 0.45,0.7 0.45,1.2 v 0 q 0,0.6 -0.65,1.25 v 0 q -2,1.85 -4.25,2.1 v 0 q -2,0.25 -6,0.85 v 0 l -3.5,0.5 q -0.8,1.75 -0.8,3.4 v 0 q 0,2.4 1.67,3.97 1.68,1.58 4.58,1.68 v 0 q 2.95,0.05 7.55,-0.4 v 0 l 0.75,-0.05 q 1.25,0 2.07,0.57 0.83,0.58 1.58,2.03 v 0 q -0.55,1.2 -1.55,1.63 -1,0.42 -2.6,0.62 v 0 q -1.65,0.2 -3.75,0.2 v 0 q -4.55,0 -8.2,-1.45 v 0 q -6.45,-2.5 -8.25,-8.65 v 0 q -0.25,-0.85 -0.25,-1.83 0,-0.97 0,-1.17 v 0 q 0,-1.7 -1.65,-2.5 v 0 q -1.35,-0.75 -2.08,-1.45 -0.72,-0.7 -0.92,-2.1 v 0 l 5.65,-0.35 2.55,-7.35 q 0.1,-0.35 0.22,-0.88 0.13,-0.52 0.28,-0.82 v 0 q 0.45,-1 0.45,-1.65 v 0 q 0,-1 -0.95,-1.75 v 0 q -0.35,-0.25 -0.58,-0.93 -0.22,-0.67 -0.42,-1.07 v 0 l 1.1,-0.35 q 0.8,-0.2 1.15,-0.35 v 0 q 0.2,-0.1 0.85,-0.37 0.65,-0.28 0.75,-0.63 v 0 q 0.35,-0.85 0.87,-1.15 0.53,-0.3 1.28,-0.3 v 0 q 0.5,0 1.5,0.1 v 0 q 0.3,0 0.62,0.12 0.33,0.13 0.53,0.33 v 0 q 1.15,1.2 2.55,1.6 1.4,0.4 3.3,0.4 v 0 h 2.15 4.2 q 4.25,0 6.35,0.1 v 0 q 1.1,0.05 2.8,0.95 v 0 q 0.3,0.15 0.47,0.57 0.18,0.43 0.18,0.83 v 0 q 0,0.2 -0.35,0.47 -0.35,0.28 -0.65,0.38 v 0 q -3.4,0.9 -5.15,1.05 v 0 q -2.7,0.25 -8.1,0.65 v 0 q -1.25,0.05 -4,0.25 v 0 q -0.2,0 -0.7,-0.13 -0.5,-0.12 -0.75,-0.12 v 0 q -1.85,0 -2.35,1.55 v 0 q -1.35,4 -2.55,7.95 v 0 z m 30.9,-6.05 q -0.2,-1.8 0.52,-3.28 0.73,-1.47 2.08,-2.87 v 0 l 3.05,-0.25 q 0.7,-0.1 0.85,-0.1 v 0 q 0.75,0 1.9,1.85 v 0 q 0.1,0.3 0.2,0.72 0.1,0.43 0.3,0.68 v 0 l 5.8,8.05 q 1.3,1.65 2.55,3.45 v 0 l 0.85,-2.75 q 1.6,-5.25 2.92,-8.53 1.33,-3.27 3.48,-6.22 v 0 l 2.4,0.35 q 0.95,0.75 0.65,2 v 0 q -0.45,1.8 -0.95,2.7 v 0 q -1.2,3.05 -2,6.17 -0.8,3.13 -1.8,7.88 v 0 q -0.15,0.65 -0.4,1.95 v 0 q -0.4,2 -1.55,2.97 -1.15,0.98 -3.15,1.08 v 0 q -2,0.1 -3.45,-1.65 v 0 q -1.5,-1.8 -3.75,-4.85 v 0 l -1,-1.35 q -1.35,-1.8 -4.1,-5.3 v 0 l -0.45,2.15 q -0.75,3.6 -0.9,5.65 v 0 l -0.3,6.05 q -0.05,1 -0.1,2.52 -0.05,1.53 -0.2,3.58 v 0 q -0.05,1.5 -1.03,2.6 -0.97,1.1 -2.42,1.5 v 0 q -0.75,0.2 -1.83,-0.37 -1.07,-0.58 -1.27,-1.33 v 0 q -0.35,-1.3 -0.35,-2.3 v 0 q 0,-0.9 0.25,-1.6 v 0 q 0.45,-1.2 0.6,-3.8 v 0 q 0.1,-1.6 0.25,-2.4 v 0 q 0.65,-4.6 2,-12.7 v 0 q 0.05,-0.4 0.22,-1.08 0.18,-0.67 0.13,-1.17 z"
                                   opacity="1"
                                   fill="#ffffff"
                                   class="undefined-text-0"
                                   data-fill-palette-color="primary"
                                   id="text-0" />
                                </svg>
                                </g>
                                </svg>
                              </g>
                            </svg>
                          </g>
                        </svg>
                      </g>
                    </svg>
                  </g>
                </svg>
              </g>
              <g
                 mask="url(#10ff8751-628d-46f1-b346-4f4efc3e1801)"
                 id="g136">
                <g
                   transform="matrix(2.452,0,0,2.452,75.16,1)"
                   id="g134">
                  <svg
                     version="1.1"
                     x="0"
                     y="0"
                     viewBox="0 0 100 100"
                     enable-background="new 0 0 100 100"
                     xml:space="preserve"
                     height="100"
                     width="100"
                     class="icon-none"
                     data-fill-palette-color="accent"
                     id="none"><path
                       d="M 50,0 C 22.386,0 0,22.386 0,50 0,77.614 22.386,100 50,100 77.614,100 100,77.614 100,50 100,22.386 77.614,0 50,0 Z m 0,14.156 C 69.799,14.156 85.844,30.2 85.844,50 85.844,69.799 69.799,85.844 50,85.844 30.201,85.844 14.156,69.799 14.156,50 14.156,30.201 30.201,14.156 50,14.156 Z m 0,5.969 C 33.495,20.125 20.125,33.495 20.125,50 20.125,66.505 33.495,79.875 50,79.875 66.505,79.875 79.875,66.505 79.875,50 79.875,33.495 66.505,20.125 50,20.125 Z m 0,9.625 C 61.178,29.75 70.25,38.822 70.25,50 70.25,61.178 61.178,70.25 50,70.25 38.822,70.25 29.75,61.178 29.75,50 29.75,38.822 38.822,29.75 50,29.75 Z"
                       fill="#ffdc00"
                       data-fill-palette-color="accent"
                       id="path131" /></svg>
                </g>
              </g>
            </svg>
          </g>
          <defs
             id="defs146">
            <mask
               id="10ff8751-628d-46f1-b346-4f4efc3e1801">
              <rect
                 width="640"
                 height="400"
                 fill="#ffffff"
                 id="rect142"
                 x="0"
                 y="0" />
              <rect
                 width="435.07199"
                 height="87.158218"
                 fill="#000000"
                 y="80.020889"
                 x="-19.775999"
                 id="transform-me" />
            </mask>
          </defs>
        </svg>
        <rect
           width="395.51999"
           height="247.2"
           fill="none"
           stroke="none"
           visibility="hidden"
           id="rect150"
           x="0"
           y="0" />
      </g>
    </svg>
  </g>
</svg>
